<svg width="2166" height="642" viewBox="0 0 2166 642" fill="none" xmlns="http://www.w3.org/2000/svg">
<g clip-path="url(#clip0)">
<path d="M1988.87 579.985C1988.99 587.284 1990.55 594.487 1993.47 601.177C1996.39 607.868 2000.61 613.914 2005.88 618.965C2011.15 624.016 2017.37 627.972 2024.18 630.605C2030.99 633.238 2038.25 634.495 2045.55 634.305C2077.39 635.19 2102.68 610.53 2102.23 579.985C2102.68 549.636 2077.39 524.956 2045.55 525.665C2038.26 525.503 2031.01 526.78 2024.21 529.423C2017.42 532.067 2011.21 536.024 2005.94 541.07C2000.68 546.115 1996.46 552.149 1993.53 558.827C1990.6 565.504 1989.02 572.694 1988.87 579.985" fill="#DFC47F"/>
<path d="M2045.55 535.111C2020.55 535.741 2000.09 555.422 2000.68 579.985C2000.11 604.901 2020.57 624.405 2045.55 624.858C2071.45 624.425 2091.9 604.901 2092.78 579.985C2091.9 555.403 2071.45 535.741 2045.55 535.111Z" fill="white"/>
<path d="M2033.72 582.346H2045.53L2064.42 610.668H2073.85L2054.96 582.346C2066.43 582.11 2075.17 577.584 2076.21 565.814C2075.17 560.244 2072.83 554.773 2069.13 551.644C2063.82 549.784 2058.21 548.982 2052.6 549.282H2024.25V610.687H2033.7V582.346H2033.72Z" fill="#DFC47F"/>
<path d="M2033.72 556.367H2050.25C2058.8 556.19 2065.82 557.292 2066.79 565.814C2065.82 576.344 2053.64 574.769 2045.53 575.261H2033.72V556.367V556.367Z" fill="white"/>
<path d="M682.802 617.772C646.904 617.654 695.811 584.452 708.781 556.367L921.339 79.2955C931.042 56.7409 931.042 41.98 928.424 32.0804C927.361 23.5387 929.211 1.39741 959.127 1.35805H1110.28C1130.33 -0.432938 1125.73 8.77785 1098.47 46.2311C1092.51 51.2105 1090.66 55.8355 1084.3 65.1251L867.019 551.644C860.012 567.861 863.712 578.922 864.657 587.07C865.542 595.513 864.617 617.654 838.678 617.772H682.802V617.772ZM288.39 1.35805C259.419 1.39741 257.589 23.5387 260.049 32.0804C261.269 41.9997 261.269 56.7605 252.964 79.2955L40.4061 556.367C27.8692 577.997 -22.8691 617.654 12.0651 617.772H172.664L295.475 348.534H479.672C543.557 348.278 558.318 403.622 550.544 424.11C543.577 444.204 479.003 599.193 307.284 528.026C297.266 524.503 293.566 526.334 283.666 532.75L234.07 591.793C229.897 600.138 231.747 611.219 243.497 617.772C255.719 622.279 298.171 645.346 425.352 641.39C552.788 637.965 683.786 543.85 727.656 445.365C740.98 411.002 758.516 325.231 673.335 296.556C699.472 281.834 829.565 204.33 829.211 112.34C829.565 19.819 774.202 1.37773 706.4 1.33837H288.39V1.35805ZM1334.65 15.5285L1221.28 268.235H1263.79C1276.09 267.074 1289 256.938 1296.86 249.341L1525.95 15.5285C1535.33 7.87252 1546.42 1.39741 1561.37 1.35805H1707.8C1718 1.39741 1715.22 7.87252 1710.16 13.1864C1710.62 12.4779 1410.22 315.47 1410.22 315.47C1419.1 319.681 1432.01 330.762 1433.84 348.534C1434.76 349.203 1469.26 603.602 1469.26 603.602C1471.69 610.274 1467.99 617.654 1459.82 617.772H1306.3C1290.85 617.654 1283.47 611.219 1282.69 598.878C1281.62 600.138 1249.62 367.428 1249.62 367.428C1248.4 358.434 1241.02 348.258 1230.73 348.534H1204.75C1193.98 348.278 1181.98 355.659 1176.41 367.428L1070.13 605.964C1068.81 611.75 1062.06 617.654 1053.6 617.772H909.53C873.868 617.654 925.511 577.997 935.509 556.367L1148.07 79.2955C1158.01 56.7409 1158.01 41.98 1155.15 32.0804C1154.33 23.5387 1156.16 1.39741 1185.85 1.35805H1325.2C1334.23 1.37773 1337.42 8.04965 1334.65 15.5285V15.5285Z" fill="#DFC47F"/>
<path d="M2142.38 1.35804C2064.9 1.3974 1693.1 -35.5048 1523.61 298.937C1445.86 490.356 1501.23 617.654 1686.57 617.772H1873.14C1896.07 617.654 1901.6 608.443 1908.57 598.878L1984.15 516.218C1989.24 507.892 1980.03 501.437 1969.98 506.771C1961.57 512.498 1933.9 527.259 1790.48 528.026C1646.06 527.259 1646.06 423.933 1674.76 348.534H2000.68C2012.31 348.278 2018.77 355.659 2024.3 357.981C2029.85 361.209 2052.89 365.814 2062.08 348.534L2092.79 272.958C2095.35 263.393 2087.04 253.257 2071.53 258.788C2053.84 264.338 2048.29 267.093 2031.38 268.235H1710.18C1735.53 215.41 1835.18 89.943 2031.38 91.1042C2071.35 91.8127 2119.32 101.024 2147.11 124.169C2158.09 130.545 2165.47 125.015 2166 114.722C2165.45 102.874 2163.64 22.6137 2163.64 22.6137C2163.6 3.24743 2154.37 3.24743 2142.38 1.35804V1.35804Z" fill="#DFC47F"/>
<path d="M408.839 91.1042H555.268C608.171 91.8127 641.373 104.704 640.291 140.701C641.373 178.528 615.551 257.882 484.415 258.788H335.625L408.839 91.1042Z" fill="white"/>
</g>
<defs>
<clipPath id="clip0">
<rect width="2166" height="642" fill="white"/>
</clipPath>
</defs>
</svg>
