<svg width="2000" height="2000" viewBox="0 0 2000 2000" fill="none" xmlns="http://www.w3.org/2000/svg">
<path fill-rule="evenodd" clip-rule="evenodd" d="M0 0H2000V2000H0V0Z" fill="white"/>
<path fill-rule="evenodd" clip-rule="evenodd" d="M540.351 1062.97C508.954 1139.49 426.072 1187.18 344.435 1187.18C223.868 1187.18 125.91 1086.8 125.91 966.362C125.91 847.175 225.124 748.065 341.914 748.065C427.307 748.065 510.199 796.997 542.852 876.03H453.682C427.307 844.664 385.866 824.586 343.169 824.586C266.565 824.586 205.026 891.075 205.026 968.862C205.026 1044.13 267.82 1111.88 343.169 1111.88C385.866 1111.88 421.029 1093.08 449.916 1062.96H540.351V1062.97ZM967.347 625.122L772.686 1021.57V1177.13H693.571V1021.57L491.367 616.334H570.493L733.756 950.051L922.139 554.867H940.972L967.347 625.122ZM1337.84 1062.97C1306.45 1139.49 1224.81 1187.18 1143.17 1187.18C1021.35 1187.18 924.65 1086.8 924.65 966.362C924.65 847.175 1022.61 748.065 1140.65 748.065C1224.81 748.065 1307.7 796.997 1340.35 876.03H1251.18C1226.07 844.664 1183.37 824.586 1140.65 824.586C1064.05 824.586 1002.52 891.075 1002.52 968.862C1002.52 1044.13 1066.57 1111.88 1141.92 1111.88C1183.38 1111.88 1219.8 1093.08 1247.42 1062.96H1337.84V1062.97ZM1390.58 756.853H1468.44V1101.86H1597.79V1177.13H1390.58V756.853ZM1641.75 756.853H1867.81V832.13H1719.6V928.729H1861.52V1005.26H1719.6V1101.86H1867.81V1177.13H1641.75V756.853ZM325.593 1395.42C310.527 1431.82 270.331 1455.65 231.401 1455.65C173.639 1455.65 127.166 1406.71 127.166 1349.02C127.166 1292.57 173.639 1244.88 230.146 1244.88C271.597 1244.88 310.527 1268.73 326.848 1306.37H284.152C271.597 1291.31 251.499 1281.28 230.146 1281.28C193.726 1281.28 164.84 1312.62 164.84 1350.28C164.84 1386.65 194.982 1419.28 231.401 1419.28C251.499 1419.28 267.82 1410.48 281.641 1395.42H325.593ZM491.367 1248.65H599.379V1285.02H529.052V1331.44H596.868V1367.82H529.052V1414.25H599.379V1450.63H491.367V1248.65ZM785.241 1248.65H826.682L912.085 1396.68V1248.65H948.515V1450.63H907.063L822.926 1303.85V1450.63H785.241V1248.65ZM1175.83 1285.02H1138.15V1248.65H1249.92V1285.02H1212.25V1450.63H1175.83V1285.02ZM1433.28 1248.65H1541.27V1285.02H1470.96V1331.44H1538.76V1367.82H1470.96V1414.25H1541.27V1450.63H1433.28V1248.65ZM1730.91 1248.65H1789.94C1808.76 1248.65 1826.36 1249.9 1841.44 1262.45C1856.49 1274.99 1865.29 1293.81 1865.29 1312.62C1865.29 1327.68 1859.01 1345.26 1848.96 1356.53C1838.93 1366.57 1826.36 1372.84 1812.54 1375.36L1867.8 1450.62H1821.33L1768.58 1372.84V1450.62H1730.9V1248.65H1730.91ZM1788.7 1345.24C1798.75 1345.24 1811.29 1343.99 1818.83 1336.47C1825.1 1330.19 1827.63 1322.67 1827.63 1313.87C1827.63 1305.09 1823.86 1296.32 1817.57 1291.29C1808.77 1285.01 1800.01 1285.01 1788.7 1285.01H1768.59V1345.24H1788.7ZM616.956 507.19C616.956 507.19 529.042 518.479 486.345 507.19C486.345 507.19 432.339 487.113 423.551 515.968C423.551 515.968 414.762 576.19 486.345 587.478C486.345 587.478 530.307 593.756 554.161 577.445C554.161 577.445 601.89 534.79 624.489 537.301C624.489 537.301 665.94 541.067 657.141 526.012C657.141 526.012 654.63 504.679 616.956 507.19ZM1011.3 504.679C1026.37 509.691 1043.96 500.913 1048.99 485.858C1054 470.802 1046.48 453.236 1030.15 448.225C1015.08 443.213 998.754 450.736 992.477 467.046C987.434 482.091 996.233 498.412 1011.3 504.679Z" fill="#DFC47F"/>
<path fill-rule="evenodd" clip-rule="evenodd" d="M945.996 531.024L1038.94 483.347L1026.38 458.268L933.441 504.679L945.996 531.024ZM1158.24 962.595L928.419 495.891L898.277 510.957L1128.11 978.906L1158.24 962.595Z" fill="#DFC47F"/>
<path fill-rule="evenodd" clip-rule="evenodd" d="M1144.42 997.728C1160.75 997.728 1174.57 983.928 1174.57 967.617C1174.57 950.051 1160.75 936.251 1144.42 936.251C1140.29 936.209 1136.19 936.992 1132.36 938.553C1128.54 940.115 1125.06 942.423 1122.14 945.344C1119.22 948.265 1116.91 951.739 1115.34 955.563C1113.78 959.388 1112.99 963.486 1113.03 967.617C1113.02 983.928 1126.85 997.728 1144.42 997.728ZM345.69 997.728C363.267 997.728 377.087 983.928 377.087 967.617C377.087 950.051 363.267 936.251 345.69 936.251C328.114 936.251 314.293 950.051 314.293 967.617C314.293 983.928 328.114 997.728 345.69 997.728ZM942.227 631.389H984.923V655.233H942.227V631.389Z" fill="#DFC47F"/>
<path d="M88.2344 1487.02H1911.76V641.433H88.2344V1487.02Z" stroke="#DFC47F" stroke-width="18.9877" stroke-miterlimit="2.613"/>
</svg>
