<svg width="1327" height="1919" viewBox="0 0 1327 1919" fill="none" xmlns="http://www.w3.org/2000/svg">
<g clip-path="url(#clip0)">
<path d="M0 0.163696H1327V1918.84H0V0.163696Z" fill="white"/>
<path d="M1022.9 1547.69V1631.77H1049.86V1575.79H1147.99V1631.77H1174.93V1547.83L1022.9 1547.69V1547.69ZM1046.86 1520.49H1150.53C1164.93 1517.63 1175.64 1504.91 1178.66 1492.62H1018.73C1021.72 1504.92 1032.59 1517.63 1046.86 1520.49Z" fill="#DFC47F"/>
<path d="M941.245 1631.83C954.839 1626.06 962.152 1616.09 964.956 1604.42H844.028L844.108 1492.69L817.001 1492.77V1631.83H941.245V1631.83ZM615.418 1520.11H711.162C725.596 1515.92 737.717 1504.92 740.671 1492.73H588.576V1574.91H713.057V1603.74L615.414 1603.82C600.113 1608.09 587.137 1618.37 580.664 1631.94L588.576 1631.8H739.804V1547.59H615.414V1520.11" fill="#DFC47F"/>
<path d="M379.057 1520.38H482.694C497.112 1517.5 507.829 1504.8 510.833 1492.5H350.918C353.903 1504.8 364.777 1517.5 379.057 1520.38ZM379.057 1575.34H482.694C497.112 1572.49 507.829 1559.78 510.833 1547.47H350.918C353.903 1559.79 364.777 1572.49 379.057 1575.34ZM379.057 1631.81H482.694C497.112 1628.94 507.829 1616.23 510.833 1603.94H350.918C353.903 1616.25 364.777 1628.94 379.057 1631.81Z" fill="#DFC47F"/>
<path d="M109.441 1492.84C112.557 1504.99 123.081 1517.41 137.512 1520.52H181.136L183.362 1521.4V1631.5H210.603V1521.4L213.082 1520.52H256.745C271.34 1516.76 281.63 1504.99 284.692 1492.84V1492.57H109.441V1492.84" fill="#DFC47F"/>
<path d="M664.328 1217.75L800.447 452.126C930.186 452.126 971.109 466.355 977.022 524.433C977.022 524.433 1064.06 491.977 1107.95 426.059C936.655 346.672 764.539 343.092 764.539 343.092L664.106 465.434L664.332 465.419L563.896 343.073C563.896 343.073 391.776 346.657 220.5 426.044C264.359 491.962 351.428 524.418 351.428 524.418C357.371 466.336 398.245 452.107 527.116 452.015L664.328 1217.75" fill="#DFC47F"/>
<path d="M664.275 307.754C802.746 306.695 961.238 329.178 1123.49 399.904C1145.18 360.866 1150.75 343.614 1150.75 343.614C973.385 273.433 807.285 249.415 664.256 248.812C521.231 249.415 355.139 273.436 177.797 343.614C177.797 343.614 185.708 364.865 205.038 399.904C367.259 329.178 525.785 306.695 664.26 307.754H664.275" fill="#DFC47F"/>
</g>
<defs>
<clipPath id="clip0">
<rect width="1327" height="1919" fill="white"/>
</clipPath>
</defs>
</svg>
